<svg xmlns="http://www.w3.org/2000/svg" xmlns:xlink="http://www.w3.org/1999/xlink" width="2000" zoomAndPan="magnify" viewBox="0 0 1500 1499.999933" height="2000" preserveAspectRatio="xMidYMid meet" version="1.0"><defs><clipPath id="aa61a2922e"><path d="M 0.523438 0.523438 L 1383.476562 0.523438 L 1383.476562 1383.476562 L 0.523438 1383.476562 Z M 0.523438 0.523438 " clip-rule="nonzero"/></clipPath><clipPath id="0338dd43fd"><path d="M 692 0.523438 C 310.109375 0.523438 0.523438 310.109375 0.523438 692 C 0.523438 1073.890625 310.109375 1383.476562 692 1383.476562 C 1073.890625 1383.476562 1383.476562 1073.890625 1383.476562 692 C 1383.476562 310.109375 1073.890625 0.523438 692 0.523438 Z M 692 0.523438 " clip-rule="nonzero"/></clipPath><clipPath id="8432f61a62"><path d="M 0.523438 0.523438 L 1383.476562 0.523438 L 1383.476562 1383.476562 L 0.523438 1383.476562 Z M 0.523438 0.523438 " clip-rule="nonzero"/></clipPath><clipPath id="cbd325de63"><path d="M 692 0.523438 C 310.109375 0.523438 0.523438 310.109375 0.523438 692 C 0.523438 1073.890625 310.109375 1383.476562 692 1383.476562 C 1073.890625 1383.476562 1383.476562 1073.890625 1383.476562 692 C 1383.476562 310.109375 1073.890625 0.523438 692 0.523438 Z M 692 0.523438 " clip-rule="nonzero"/></clipPath><clipPath id="5910b488f8"><rect x="0" width="1384" y="0" height="1384"/></clipPath><clipPath id="d93635ee23"><path d="M 261.164062 358.101562 L 1123 358.101562 L 1123 1026 L 261.164062 1026 Z M 261.164062 358.101562 " clip-rule="nonzero"/></clipPath><clipPath id="39303985d4"><rect x="0" width="1384" y="0" height="1384"/></clipPath></defs><g transform="matrix(1, 0, 0, 1, 58, 58)"><g clip-path="url(#39303985d4)"><g clip-path="url(#aa61a2922e)"><g clip-path="url(#0338dd43fd)"><g transform="matrix(1, 0, 0, 1, 0, 0.000000000000113687)"><g clip-path="url(#5910b488f8)"><g clip-path="url(#8432f61a62)"><g clip-path="url(#cbd325de63)"><path fill="#ebe6fd" d="M 0.523438 0.523438 L 1383.476562 0.523438 L 1383.476562 1383.476562 L 0.523438 1383.476562 Z M 0.523438 0.523438 " fill-opacity="1" fill-rule="nonzero"/></g></g></g></g></g></g><g clip-path="url(#d93635ee23)"><path fill="#6c51e7" d="M 1079.308594 428.664062 L 1041.621094 428.664062 L 1041.621094 393.660156 C 1041.621094 374.425781 1025.917969 358.585938 1006.679688 358.40625 L 994.839844 358.296875 C 886.441406 357.464844 764.175781 356.453125 692.011719 420.492188 C 619.851562 356.417969 497.480469 357.464844 389.183594 358.296875 L 377.34375 358.40625 C 358.140625 358.585938 342.402344 374.316406 342.402344 393.660156 L 342.402344 428.664062 L 304.714844 428.664062 C 280.785156 428.664062 261.292969 448.1875 261.292969 472.160156 L 261.292969 911.019531 C 261.292969 922.769531 265.804688 933.691406 274.035156 941.933594 C 282.265625 950.175781 293.34375 954.625 305.003906 954.515625 L 316.84375 954.40625 C 440.878906 953.394531 581.40625 952.273438 665.582031 1016.710938 C 673.523438 1022.75 682.765625 1025.820312 692.007812 1025.820312 C 701.246094 1025.820312 710.488281 1022.785156 718.355469 1016.746094 C 802.539062 952.3125 943.097656 953.433594 1067.09375 954.445312 L 1078.933594 954.554688 C 1090.59375 954.660156 1101.675781 950.214844 1109.90625 941.96875 C 1118.136719 933.722656 1122.648438 922.804688 1122.648438 911.054688 L 1122.648438 472.085938 C 1122.722656 448.113281 1103.226562 428.660156 1079.296875 428.660156 Z M 994.660156 379.34375 L 1006.496094 379.449219 C 1014.257812 379.558594 1020.539062 385.851562 1020.539062 393.625 L 1020.539062 861.554688 C 1020.539062 865.460938 1019.058594 868.96875 1016.386719 871.644531 C 1013.714844 874.320312 1010.105469 875.800781 1006.207031 875.730469 L 994.765625 875.621094 C 891.449219 874.789062 775.578125 874.03125 702.371094 929.390625 L 702.371094 439.585938 C 767.960938 377.679688 888.273438 378.511719 994.660156 379.34375 Z M 363.414062 393.589844 C 363.414062 385.816406 369.695312 379.414062 377.457031 379.414062 L 389.292969 379.308594 C 495.675781 378.476562 615.988281 377.644531 681.503906 439.582031 L 681.503906 929.351562 C 617.289062 880.753906 520.257812 875.402344 427.5625 875.402344 C 414.640625 875.402344 401.789062 875.511719 389.117188 875.582031 L 377.675781 875.691406 C 373.777344 875.800781 370.203125 874.316406 367.496094 871.605469 C 364.824219 868.929688 363.34375 865.3125 363.34375 861.519531 L 363.308594 393.585938 Z M 1101.75 911.050781 C 1101.75 917.164062 1099.441406 922.804688 1095.183594 927.070312 C 1091.03125 931.230469 1085.398438 933.542969 1079.371094 933.542969 L 1079.191406 933.542969 L 1067.351562 933.4375 C 939.925781 932.421875 795.574219 931.300781 705.648438 1000.074219 C 697.417969 1006.367188 686.699219 1006.367188 678.46875 1000.074219 C 588.546875 931.300781 444.125 932.421875 316.765625 933.4375 L 304.925781 933.542969 C 298.933594 933.542969 293.195312 931.335938 288.933594 927.070312 C 284.675781 922.804688 282.363281 917.164062 282.363281 911.050781 L 282.4375 472.085938 C 282.4375 459.683594 292.507812 449.667969 304.816406 449.667969 L 342.503906 449.667969 L 342.503906 861.585938 C 342.503906 871.132812 346.183594 879.992188 352.863281 886.679688 C 359.503906 893.261719 368.3125 896.875 377.625 896.875 L 377.914062 896.875 L 389.359375 896.769531 C 497.394531 895.9375 619.835938 894.925781 684.597656 959.792969 C 686.621094 961.816406 689.328125 962.832031 692 962.832031 C 694.671875 962.832031 697.339844 961.816406 699.398438 959.792969 C 764.195312 894.886719 886.640625 895.9375 994.640625 896.769531 L 1006.082031 896.875 L 1006.371094 896.875 C 1015.792969 896.875 1024.566406 893.261719 1031.136719 886.679688 C 1037.777344 880.027344 1041.496094 871.132812 1041.496094 861.585938 L 1041.496094 449.667969 L 1079.179688 449.667969 C 1091.5625 449.667969 1101.5625 459.753906 1101.5625 472.085938 L 1101.5625 911.050781 Z M 748.929688 659.820312 C 746.617188 654.46875 749.109375 648.246094 754.488281 646.042969 C 814.375 620.40625 890.90625 616.789062 964.539062 616.789062 C 970.347656 616.789062 975.078125 621.527344 975.078125 627.347656 C 975.078125 633.167969 970.347656 637.90625 964.539062 637.90625 C 893.097656 637.90625 819.175781 641.339844 762.714844 665.496094 C 761.34375 666.035156 759.933594 666.328125 758.5625 666.328125 C 754.484375 666.289062 750.589844 663.867188 748.929688 659.820312 Z M 748.929688 739.800781 C 746.617188 734.449219 749.109375 728.230469 754.488281 726.023438 C 814.375 700.386719 890.90625 696.773438 964.539062 696.773438 C 970.347656 696.773438 975.078125 701.507812 975.078125 707.328125 C 975.078125 713.152344 970.347656 717.886719 964.539062 717.886719 C 893.097656 717.886719 819.175781 721.324219 762.714844 745.476562 C 761.34375 746.019531 759.933594 746.308594 758.5625 746.308594 C 754.484375 746.164062 750.589844 743.78125 748.929688 739.800781 Z M 748.929688 579.910156 C 746.617188 574.5625 749.109375 568.339844 754.488281 566.136719 C 814.375 540.5 890.90625 536.882812 964.539062 536.882812 C 970.347656 536.882812 975.078125 541.621094 975.078125 547.441406 C 975.078125 553.261719 970.347656 558 964.539062 558 C 893.097656 558 819.175781 561.433594 762.714844 585.589844 C 761.34375 586.128906 759.933594 586.417969 758.5625 586.417969 C 754.484375 586.3125 750.589844 583.890625 748.929688 579.910156 Z M 748.929688 500.039062 C 746.617188 494.6875 749.109375 488.464844 754.488281 486.261719 C 814.375 460.625 890.90625 457.007812 964.539062 457.007812 C 970.347656 457.007812 975.078125 461.746094 975.078125 467.566406 C 975.078125 473.386719 970.347656 478.125 964.539062 478.125 C 893.097656 478.125 819.175781 481.558594 762.714844 505.714844 C 761.34375 506.253906 759.933594 506.546875 758.5625 506.546875 C 754.484375 506.4375 750.589844 504.015625 748.929688 500.039062 Z M 975.046875 787.105469 C 975.046875 792.925781 970.320312 797.660156 964.507812 797.660156 C 893.070312 797.660156 819.148438 801.097656 762.683594 825.25 C 761.3125 825.792969 759.902344 826.082031 758.53125 826.082031 C 754.453125 826.082031 750.59375 823.660156 748.824219 819.683594 C 746.511719 814.332031 749.003906 808.113281 754.382812 805.90625 C 814.269531 780.269531 890.796875 776.652344 964.429688 776.652344 C 970.347656 776.617188 975.046875 781.355469 975.046875 787.105469 Z M 408.960938 467.566406 C 408.960938 461.742188 413.691406 457.007812 419.503906 457.007812 C 493.25 457.007812 569.667969 460.621094 629.550781 486.261719 C 634.894531 488.574219 637.421875 494.683594 635.109375 500.035156 C 633.449219 504.011719 629.550781 506.4375 625.398438 506.4375 C 624.027344 506.4375 622.621094 506.148438 621.25 505.605469 C 564.792969 481.449219 490.867188 478.125 419.425781 478.015625 C 413.648438 478.015625 408.960938 473.277344 408.960938 467.566406 Z M 408.960938 547.4375 C 408.960938 541.617188 413.691406 536.882812 419.503906 536.882812 C 493.25 536.882812 569.667969 540.496094 629.550781 566.132812 C 634.894531 568.449219 637.421875 574.558594 635.109375 579.910156 C 633.449219 583.886719 629.550781 586.3125 625.398438 586.3125 C 624.027344 586.3125 622.621094 586.019531 621.25 585.480469 C 564.792969 561.324219 490.867188 558 419.425781 557.890625 C 413.648438 557.890625 408.960938 553.261719 408.960938 547.4375 Z M 408.960938 627.3125 C 408.960938 621.492188 413.691406 616.757812 419.503906 616.757812 C 493.25 616.757812 569.667969 620.371094 629.550781 646.007812 C 634.894531 648.324219 637.421875 654.433594 635.109375 659.785156 C 633.449219 663.761719 629.550781 666.183594 625.398438 666.183594 C 624.027344 666.183594 622.621094 665.898438 621.25 665.355469 C 564.792969 641.199219 490.867188 637.871094 419.425781 637.765625 C 413.648438 637.871094 408.960938 633.136719 408.960938 627.3125 Z M 408.960938 787.101562 C 408.960938 781.28125 413.691406 776.542969 419.503906 776.542969 C 493.25 776.542969 569.667969 780.160156 629.550781 805.796875 C 634.894531 808.113281 637.421875 814.222656 635.109375 819.574219 C 633.449219 823.550781 629.550781 825.972656 625.398438 825.972656 C 624.027344 825.972656 622.621094 825.683594 621.25 825.140625 C 564.792969 800.988281 490.867188 797.660156 419.425781 797.550781 C 413.648438 797.660156 408.960938 792.921875 408.960938 787.101562 Z M 408.960938 707.191406 C 408.960938 701.371094 413.691406 696.632812 419.503906 696.632812 C 493.25 696.632812 569.667969 700.25 629.550781 725.886719 C 634.894531 728.199219 637.421875 734.3125 635.109375 739.664062 C 633.449219 743.640625 629.550781 746.0625 625.398438 746.0625 C 624.027344 746.0625 622.621094 745.773438 621.25 745.230469 C 564.792969 721.078125 490.867188 717.75 419.425781 717.640625 C 413.648438 717.75 408.960938 713.050781 408.960938 707.191406 Z M 408.960938 707.191406 " fill-opacity="1" fill-rule="nonzero"/></g></g></g></svg>